<svg width="604" height="582" viewBox="0 0 604 582" fill="none" xmlns="http://www.w3.org/2000/svg">
<g clip-path="url(#clip0_8_5)">
<path d="M55.3847 568.306H444.616M55.3847 568.306C48.6523 568.306 42.1955 565.303 37.435 559.958C32.6745 554.614 30 547.365 30 539.806M55.3847 568.306H224.616C238.627 568.306 250 555.537 250 539.806M444.616 568.306C458.627 568.306 470 555.537 470 539.806M444.616 568.306H275.384C268.652 568.306 262.196 565.303 257.435 559.958C252.674 554.614 250 547.365 250 539.806M30 539.806V216.806M30 539.806V501.806C30 486.074 41.3723 473.306 55.3847 473.306M250 539.806V501.806M470 539.806V216.806M470 539.806V501.806C470 486.074 458.627 473.306 444.616 473.306M30 216.806C30 201.074 41.3723 188.306 55.3847 188.306H444.616C458.627 188.306 470 201.074 470 216.806M30 216.806V254.806C30 270.537 41.3723 283.306 55.3847 283.306M55.3847 473.306C41.3723 473.306 30 460.537 30 444.806V406.806C30 391.074 41.3723 378.306 55.3847 378.306M55.3847 473.306H224.616M250 501.806C250 486.074 238.627 473.306 224.616 473.306M250 501.806C250 486.074 261.373 473.306 275.384 473.306M470 216.806V254.806C470 270.537 458.627 283.306 444.616 283.306M55.3847 283.306H257.435H444.616M55.3847 283.306H224.616C238.627 283.306 250 279.933 250 295.665M55.3847 283.306C41.3723 283.306 30 296.074 30 311.806V349.806C30 365.537 41.3723 378.306 55.3847 378.306M55.3847 378.306H224.616M224.616 473.306C238.627 473.306 250 460.537 250 444.806M444.616 473.306C458.627 473.306 470 460.537 470 444.806V406.806C470 391.074 458.627 378.306 444.616 378.306M444.616 473.306H275.384M444.616 283.306H275.384C261.373 283.306 250 279.933 250 295.665M444.616 283.306C458.627 283.306 470 296.074 470 311.806V349.806C470 365.537 458.627 378.306 444.616 378.306M444.616 378.306H275.384M275.384 473.306C261.373 473.306 250 460.537 250 444.806M250 295.665V349.806M250 349.806C250 365.537 238.627 378.306 224.616 378.306M250 349.806C250 365.537 261.373 378.306 275.384 378.306M224.616 378.306C238.627 378.306 250 391.074 250 406.806M275.384 378.306C261.373 378.306 250 391.074 250 406.806M250 406.806V444.806" stroke="black" stroke-width="28.5" stroke-linecap="round" stroke-linejoin="round"/>
<path d="M584 355.306L488 257.306" stroke="black" stroke-width="28.5" stroke-linecap="round" stroke-linejoin="round"/>
<path d="M389.001 287C463.008 287 523 227.23 523 153.499C523 79.7703 463.008 20 389.001 20C314.994 20 255 79.7703 255 153.499C255 227.23 314.994 287 389.001 287Z" stroke="black" stroke-width="28.5" stroke-linecap="round" stroke-linejoin="round"/>
</g>
<defs>
<clipPath id="clip0_8_5">
<rect width="604" height="582" fill="white"/>
</clipPath>
</defs>
</svg>
