<svg width="573" height="573" viewBox="0 0 573 573" fill="none" xmlns="http://www.w3.org/2000/svg">
<path d="M477.5 238.75C483.832 238.75 489.905 236.235 494.382 231.757C498.86 227.28 501.375 221.207 501.375 214.875V143.25C501.375 136.918 498.86 130.845 494.382 126.368C489.905 121.89 483.832 119.375 477.5 119.375H417.812C414.106 119.375 410.45 118.512 407.135 116.854C403.82 115.197 400.936 112.79 398.713 109.825L377.225 81.175C375.001 78.2098 372.117 75.8031 368.802 74.1455C365.487 72.488 361.831 71.625 358.125 71.625H310.375C304.043 71.625 297.97 74.1404 293.493 78.6178C289.015 83.0953 286.5 89.168 286.5 95.5V214.875C286.5 221.207 289.015 227.28 293.493 231.757C297.97 236.235 304.043 238.75 310.375 238.75H477.5Z" stroke="white" stroke-width="20" stroke-linecap="round" stroke-linejoin="round"/>
<path d="M477.5 501.375C483.832 501.375 489.905 498.86 494.382 494.382C498.86 489.905 501.375 483.832 501.375 477.5V405.875C501.375 399.543 498.86 393.47 494.382 388.993C489.905 384.515 483.832 382 477.5 382H408.263C403.894 381.943 399.625 380.688 395.921 378.373C392.216 376.058 389.218 372.77 387.252 368.869L377.225 348.575C375.361 344.304 372.288 340.672 368.385 338.127C364.482 335.581 359.92 334.234 355.26 334.25H310.375C304.043 334.25 297.97 336.765 293.493 341.243C289.015 345.72 286.5 351.793 286.5 358.125V477.5C286.5 483.832 289.015 489.905 293.493 494.382C297.97 498.86 304.043 501.375 310.375 501.375H477.5Z" stroke="white" stroke-width="20" stroke-linecap="round" stroke-linejoin="round"/>
<path d="M71.625 119.375C71.625 132.039 76.6558 144.184 85.6106 153.139C94.5655 162.094 106.711 167.125 119.375 167.125H191" stroke="white" stroke-width="20" stroke-linecap="round" stroke-linejoin="round"/>
<path d="M71.625 71.625V382C71.625 394.664 76.6558 406.809 85.6106 415.764C94.5655 424.719 106.711 429.75 119.375 429.75H191" stroke="white" stroke-width="20" stroke-linecap="round" stroke-linejoin="round"/>
</svg>
